<svg id="Capa_1" data-name="Capa 1" xmlns="http://www.w3.org/2000/svg" viewBox="0 0 1008 1008"><defs><style>.cls-1{fill:#00b4d8;}.cls-2{fill:#ffba08;}.cls-3{fill:#f72585;}.cls-4{fill:#9d4edd;}.cls-5{fill:none;}</style></defs><path class="cls-1" d="M840.5,121.88v93.86A430.5,430.5,0,0,0,542.5,96.5c-127.95,0-242.91,55.62-322,144V139.85a504.06,504.06,0,0,1,620-18Z" transform="translate(-38 -24)"/><path class="cls-2" d="M1046,528c0,166.63-80.87,314.38-205.5,406.12V841.26a432,432,0,0,0,0-625.52V121.88C965.13,213.62,1046,361.37,1046,528Z" transform="translate(-38 -24)"/><path class="cls-3" d="M840.5,841.26v92.86a504.06,504.06,0,0,1-620-18V816.49c79.09,88.39,194.05,144,322,144A430.5,430.5,0,0,0,840.5,841.26Z" transform="translate(-38 -24)"/><path class="cls-4" d="M220.5,240.51a432,432,0,0,0,0,576v99.66C109,823.71,38,684.15,38,528s71-295.71,182.5-388.15Z" transform="translate(-38 -24)"/><path class="cls-5" d="M840.5,215.74A430.5,430.5,0,0,0,542.5,96.5c-127.95,0-242.91,55.62-322,144a432,432,0,0,0,0,576c79.09,88.39,194.05,144,322,144a432,432,0,0,0,298-744.76Zm-75.5,560q-80.41,74.17-225.16,74.15-145.64,0-220.24-81.3T245,528.24q0-96.49,37.52-169.31T388.85,246.35q68.77-39.73,159.92-39.76,67.89,0,122.41,16.53t91.13,48.69q-7.15,27.7-27.24,53.62t-33.51,25.91a32.28,32.28,0,0,1-11.17-1.79,87.32,87.32,0,0,1-13.85-7.15q-30.37-19.65-61.65-28.6T547,304.87q-78.63,0-119.73,57.19T386.17,528.24q0,223.38,151.89,223.36,64.34,0,91.13-19.65V592.58H574.68q-27.7,0-39.31-21t-11.61-73.71H765Z" transform="translate(-38 -24)"/><path class="cls-5" d="M840.5,215.74A430.5,430.5,0,0,0,542.5,96.5c-127.95,0-242.91,55.62-322,144a432,432,0,0,0,0,576c79.09,88.39,194.05,144,322,144a432,432,0,0,0,298-744.76Zm-75.5,560q-80.41,74.17-225.16,74.15-145.64,0-220.24-81.3T245,528.24q0-96.49,37.52-169.31T388.85,246.35q68.77-39.73,159.92-39.76,67.89,0,122.41,16.53t91.13,48.69q-7.15,27.7-27.24,53.62t-33.51,25.91a32.28,32.28,0,0,1-11.17-1.79,87.32,87.32,0,0,1-13.85-7.15q-30.37-19.65-61.65-28.6T547,304.87q-78.63,0-119.73,57.19T386.17,528.24q0,223.38,151.89,223.36,64.34,0,91.13-19.65V592.58H574.68q-27.7,0-39.31-21t-11.61-73.71H765Z" transform="translate(-38 -24)"/><path class="cls-1" d="M765,497.86V775.73q-80.41,74.17-225.16,74.15-145.64,0-220.24-81.3T245,528.24q0-96.49,37.52-169.31T388.85,246.35q68.77-39.73,159.92-39.76,67.89,0,122.41,16.53t91.13,48.69q-7.15,27.7-27.24,53.62t-33.51,25.91a32.28,32.28,0,0,1-11.17-1.79,87.32,87.32,0,0,1-13.85-7.15q-30.37-19.65-61.65-28.6T547,304.87q-78.63,0-119.73,57.19T386.17,528.24q0,223.38,151.89,223.36,64.34,0,91.13-19.65V592.58H574.68q-27.7,0-39.31-21t-11.61-73.71Z" transform="translate(-38 -24)"/></svg>